<?xml version="1.0" encoding="iso-8859-1"?>
<!-- Uploaded to: SVG Repo, www.svgrepo.com, Generator: SVG Repo Mixer Tools -->
<svg height="800px" width="800px" version="1.1" id="Layer_1" xmlns="http://www.w3.org/2000/svg" xmlns:xlink="http://www.w3.org/1999/xlink" 
	 viewBox="0 0 512 512" xml:space="preserve">
<path style="fill:#F9AB9B;" d="M280.367,177.599h-62.984c-8.635,0-16.539-4.849-20.452-12.547l-2.411-4.744
	c-1.637-3.221-2.491-6.783-2.491-10.396V94.099c0-12.671,10.272-22.943,22.943-22.943h65.395c12.671,0,22.943,10.272,22.943,22.943
	v60.559c0,12.185-9.525,22.244-21.692,22.908l0,0C281.202,177.588,280.785,177.599,280.367,177.599z"/>
<path style="fill:#FFBCAB;" d="M259.233,147.29v11.68c0,10.289,8.341,18.629,18.629,18.629h56.639h24.136
	c6.861,0,12.423-5.562,12.423-12.423v-24.688c0-7.334-6.661-12.866-13.87-11.517L259.233,147.29z"/>
<path style="fill:#F29E91;" d="M255.86,28.105h86.828c4.035,0,7.594,2.643,8.761,6.505l22.72,75.19
	c0.823,2.725,0.175,5.683-1.714,7.814L346.14,147.29h-48.149L255.86,28.105z"/>
<path style="fill:#F9AB9B;" d="M263.307,147.29h48.149l25.9-29.21c2.147-2.421,2.883-5.78,1.948-8.878l-22.766-75.34
	c-1.033-3.419-4.183-5.758-7.754-5.758h-87.609l44.56,59.592L263.307,147.29z"/>
<path style="fill:#FFBCAB;" d="M197.683,104.748c1.346-12.067,11.323-21.302,23.455-21.805c0.015-0.001,0.027-0.001,0.039-0.002
	h24.9l10.7,26.562H244.07c-12.188,0-22.068,9.88-22.068,22.068v15.718h48.149l25.187-28.405c2.59-2.921,3.48-6.976,2.35-10.712
	l-24.193-80.067h-93.624l-50.362,43.391L0,329.293v64.182c0,0,66.9,56.465,153.395,56.465s155.8-33.954,155.8-33.954l67.909,67.909
	h133.521V187.046c-68.622,0-117.326,52.928-117.326,52.928c-93.804-25.753-118.707,64.87-118.707,64.87
	s-19.307-51.598-71.413-51.598s-74.352,46.875-74.352,46.875l63.204-144.712L197.683,104.748z"/>
<g>
	<path style="fill:#F9AB9B;" d="M260.204,310.917c5.205,0.809,10.738-0.205,14.388-6.072
		c-16.547-37.403-45.349-51.331-71.206-51.331c-5.157,0-10.018,0.466-14.598,1.293c31.269,5.991,47.993,31.292,54.401,43.569
		C246.628,304.963,252.861,309.775,260.204,310.917z"/>
	<path style="fill:#F9AB9B;" d="M300.803,411.229c-11.341-9.021-27.138-9.819-39.368-2.045
		c-24.059,15.293-68.235,38.166-120.226,40.637c4.083,0.251,8.215,0.386,12.395,0.386c58.45,0,126.603-20.258,154.077-33.507
		L300.803,411.229z"/>
	<polygon style="fill:#F9AB9B;" points="198.959,99.222 114.633,300.121 128.826,300.121 192.029,155.409 211.896,108.051 	"/>
	<path style="fill:#F9AB9B;" d="M512,241.63c0,0-43.96,11.288-43.96,74.716s28.489,86.004,28.489,86.004
		s-50.527,51.189-50.527,75.584H512V241.63L512,241.63z"/>
</g>
</svg>